<svg width="256" height="256" viewBox="0 0 256 256" fill="none" xmlns="http://www.w3.org/2000/svg">
<rect x="16" y="16.3208" width="224.679" height="224.679" rx="36.0063" stroke="#D9D9D9" stroke-width="14.4025" stroke-linejoin="round" stroke-dasharray="14.4 14.4"/>
<path d="M106.614 198.784L58.9416 151.191L69.3936 140.619L117.106 188.292L106.614 198.784ZM69.3936 198.784L58.9416 188.292L106.614 140.619L117.106 151.191L69.3936 198.784Z" fill="#8D8D8D"/>
<path d="M80.1628 116.572V60.0829H94.4446V116.572H80.1628ZM59.0592 95.4683V81.1865H115.548V95.4683H59.0592Z" fill="#8D8D8D"/>
<path d="M189.862 80.7077V94.1917H152.602V80.7077H189.862Z" fill="#8D8D8D"/>
<path d="M199.484 157.159V170.683H143.633V157.159H199.484ZM171.558 195.736C168.872 195.736 166.585 194.791 164.697 192.903C162.808 191.015 161.864 188.728 161.864 186.041C161.864 183.435 162.808 181.201 164.697 179.339C166.585 177.478 168.872 176.547 171.558 176.547C174.165 176.547 176.399 177.478 178.26 179.339C180.122 181.201 181.053 183.435 181.053 186.041C181.053 188.728 180.122 191.015 178.26 192.903C176.399 194.791 174.165 195.736 171.558 195.736ZM171.558 151.334C169.777 151.334 168.154 150.895 166.691 150.018C165.229 149.14 164.058 147.97 163.181 146.507C162.303 145.044 161.864 143.422 161.864 141.64C161.864 139.007 162.808 136.773 164.697 134.938C166.612 133.076 168.899 132.146 171.558 132.146C174.191 132.146 176.425 133.076 178.26 134.938C180.122 136.773 181.053 139.007 181.053 141.64C181.053 144.326 180.122 146.614 178.26 148.502C176.425 150.39 174.191 151.334 171.558 151.334Z" fill="#8D8D8D"/>
</svg>
